<?xml version="1.0" encoding="UTF-8"?>
<svg width="780px" height="700px" viewBox="0 0 780 700" version="1.1" xmlns="http://www.w3.org/2000/svg" xmlns:xlink="http://www.w3.org/1999/xlink">
    <!-- Generator: Sketch 48.1 (47250) - http://www.bohemiancoding.com/sketch -->
    <title>city_background-right</title>
    <desc>Created with Sketch.</desc>
    <defs></defs>
    <g id="Wednesday" stroke="none" stroke-width="1" fill="none" fill-rule="evenodd">
        <g id="city_background-right">
            <path d="M132.976563,413.929688 C188.983176,364.64819 257.665695,333.096881 339.024118,319.275763 L339.024118,319.275762 C370.779279,313.881215 397.991867,293.521023 412.129216,264.579241 C451.834856,183.294418 498.247973,122.913494 551.368566,83.4364714 C614.555147,36.4788238 690.775927,13 780.030906,13 L780.030906,700 L6,700 C23.2445621,568.598958 65.5700829,473.242188 132.976563,413.929688 Z" id="Path-11" fill="#0F43CC"></path>
            <path d="M360.437862,539.59375 C398.422322,515.279056 446.762695,496.858509 505.45898,484.332109 L505.45898,484.332109 C534.80065,478.07029 559.780464,458.965195 573.507416,432.287213 C598.119446,384.454359 627.454213,348.923726 661.511719,325.695312 C705.173177,295.916667 744.682412,281.351562 780.039425,282 L780.039425,698.682669 L273,699.911204 C283.338542,623.728913 312.484496,570.289761 360.437862,539.59375 Z" id="Path-11" fill="#0A38C4" opacity="0.982914414"></path>
        </g>
    </g>
</svg>