<?xml version="1.0" encoding="UTF-8"?>
<svg width="780px" height="700px" viewBox="0 0 780 700" version="1.1" xmlns="http://www.w3.org/2000/svg" xmlns:xlink="http://www.w3.org/1999/xlink">
    <!-- Generator: Sketch 48.1 (47250) - http://www.bohemiancoding.com/sketch -->
    <title>city_background-left</title>
    <desc>Created with Sketch.</desc>
    <defs></defs>
    <g id="Wednesday" stroke="none" stroke-width="1" fill="none" fill-rule="evenodd">
        <g id="city_background-left">
            <path d="M126.976563,413.929688 C182.983176,364.64819 251.665695,333.096881 333.024118,319.275763 L333.024118,319.275762 C364.779279,313.881215 391.991867,293.521023 406.129216,264.579241 C445.834856,183.294418 492.247973,122.913494 545.368566,83.4364714 C608.555147,36.4788238 684.775927,13 774.030906,13 L774.030906,700 L0,700 C17.2445621,568.598958 59.5700829,473.242188 126.976563,413.929688 Z" id="Path-11" fill="#0F43CC" transform="translate(387.015453, 356.500000) scale(-1, 1) translate(-387.015453, -356.500000) "></path>
            <path d="M87.4378623,539.614478 C125.422322,515.299785 173.762695,496.879238 232.45898,484.352838 L232.45898,484.352838 C261.80065,478.091019 286.780464,458.985924 300.507416,432.307941 C325.119446,384.475087 354.454213,348.944454 388.511719,325.716041 C432.173177,295.937395 471.682412,281.372291 507.039425,282.020728 L507.039425,698.703397 L0,699.931933 C10.3385417,623.749641 39.4844958,570.31049 87.4378623,539.614478 Z" id="Path-11" fill="#0A38C4" opacity="0.982914414" transform="translate(253.519712, 490.965966) scale(-1, 1) translate(-253.519712, -490.965966) "></path>
        </g>
    </g>
</svg>