<?xml version="1.0" encoding="UTF-8"?>
<svg width="24px" height="24px" viewBox="0 0 24 24" version="1.1" xmlns="http://www.w3.org/2000/svg" xmlns:xlink="http://www.w3.org/1999/xlink">
    <!-- Generator: Sketch 48.1 (47250) - http://www.bohemiancoding.com/sketch -->
    <title>Artboard Copy 8</title>
    <desc>Created with Sketch.</desc>
    <defs></defs>
    <g id="Wednesday" stroke="none" stroke-width="1" fill="none" fill-rule="evenodd">
        <g id="Artboard-Copy-8" fill="#FFFFFF">
            <path d="M10.0760546,15.4205587 C11.1417059,14.6857927 12.1264755,13.8359007 13.0319751,12.8703783 C13.8862213,11.9595068 14.6598193,10.9986069 15.3530298,9.98708064 L13.0695302,7.5662595 C12.7835542,7.26308594 12.715592,6.81433835 12.8989722,6.44008152 L15.0080402,2.13572808 C15.2306302,1.68144871 15.757419,1.46495376 16.2351227,1.6314327 L21.5217853,3.47382573 L21.6185989,3.50097573 C20.3933263,7.87014952 18.2577732,11.6836895 15.2202221,14.9225905 C12.134809,18.2125261 8.24328751,20.3533468 3.58641145,21.3322963 L1.78419028,16.2608502 C1.61702262,15.7904408 1.8224013,15.2688035 2.26540227,15.0386293 L6.45986311,12.8592736 C6.84236744,12.6605322 7.30917841,12.7292618 7.61817071,13.0298137 L10.0760546,15.4205587 Z" id="Combined-Shape" transform="translate(11.555576, 11.336009) scale(-1, 1) translate(-11.555576, -11.336009) "></path>
        </g>
    </g>
</svg>