<?xml version="1.0" encoding="UTF-8"?>
<svg width="640px" height="256px" viewBox="0 0 640 256" version="1.1" xmlns="http://www.w3.org/2000/svg" xmlns:xlink="http://www.w3.org/1999/xlink">
    <!-- Generator: Sketch 48.1 (47250) - http://www.bohemiancoding.com/sketch -->
    <title>Artboard Copy 5</title>
    <desc>Created with Sketch.</desc>
    <defs>
        <linearGradient x1="97.3369928%" y1="63.8499416%" x2="11.9555837%" y2="-4.75890787%" id="linearGradient-1">
            <stop stop-color="#FFE970" offset="0%"></stop>
            <stop stop-color="#FDB16B" offset="100%"></stop>
        </linearGradient>
        <linearGradient x1="82.2344605%" y1="0%" x2="0%" y2="52.856942%" id="linearGradient-2">
            <stop stop-color="#FA7AE4" offset="0%"></stop>
            <stop stop-color="#FA7A96" offset="100%"></stop>
        </linearGradient>
        <linearGradient x1="50%" y1="100%" x2="50%" y2="3.061617e-15%" id="linearGradient-3">
            <stop stop-color="#85DBFE" offset="0%"></stop>
            <stop stop-color="#ABFAF3" offset="100%"></stop>
        </linearGradient>
    </defs>
    <g id="Wednesday" stroke="none" stroke-width="1" fill="none" fill-rule="evenodd">
        <g id="Artboard-Copy-5">
            <g id="Group-10" transform="translate(157.000000, 7.000000)">
                <g id="Group-17">
                    <g id="Group" fill-rule="nonzero">
                        <path d="M137.160728,36.8392725 L137.160728,21.8392725 L247.3513,21.8392725 C275.572913,21.8392725 290.099572,34.0994492 290.099572,63.3261255 L290.099572,132.099572 L275.099572,132.099572 L275.099572,63.3261255 C275.099572,43.000803 267.798987,36.8392725 247.3513,36.8392725 L137.160728,36.8392725 Z" id="Path-7" fill="url(#linearGradient-1)" transform="translate(213.630150, 76.969422) rotate(-90.000000) translate(-213.630150, -76.969422) "></path>
                        <polygon id="Path" fill="#0A3AC6" points="112 193 97 193 97 108 112 108"></polygon>
                        <path d="M468,93.0935797 L483,93.0935797 L483,118.052327 L482.944089,118.507655 C480.607844,137.533674 469.18349,148.09358 450.617188,148.09358 L415.447266,148.09358 C402.833765,148.09358 399.516501,151.167676 399.516501,162.190989 L399.516501,193 L384.516501,193 L384.516501,162.190989 C384.516501,142.617547 394.793835,133.09358 415.447266,133.09358 L450.617188,133.09358 C461.325463,133.09358 466.495268,128.439885 468,117.116987 L468,93.0935797 Z" id="Path" fill="#4974DD" transform="translate(433.758250, 143.046790) scale(1, -1) translate(-433.758250, -143.046790) "></path>
                        <path d="M282.488977,80.3730666 L282.142761,65.3770627 C291.102157,65.1702147 305.552837,65.0672791 325.524508,65.0672791 C343.694546,65.0672791 355.46001,79.1820217 355.485712,96.5225228 C355.511447,113.884333 343.759161,128 325.524508,128 L282.315869,128 C267.5586,128 260,135.069582 260,147.457031 L260,193 L245,193 L245,147.457031 C245,126.552779 259.490252,113 282.315869,113 L325.524508,113 C334.801655,113 340.499975,106.15575 340.485729,96.5447562 C340.471483,86.933775 334.747857,80.0672791 325.524508,80.0672791 C305.659864,80.0672791 291.304784,80.1695338 282.488977,80.3730666 Z" id="Path-7" fill="#8EACEB"></path>
                        <path d="M15,193 L0,193 L0,142.478141 C0,122.809676 5.54550683,104.212563 16.7105024,90.2509566 C29.8462944,73.8249087 49.843235,64.7589097 75.9180825,64.7589097 C241.936009,64.7589097 262.10974,64.7589096 278.920014,64.758909 L278.920014,79.758909 C262.109741,79.7589096 241.936009,79.7589097 75.9180825,79.7589097 C54.2830849,79.7589097 38.6335902,86.8539102 28.4252899,99.6191877 C19.5627035,110.701677 15,126.002914 15,142.478141 L15,193 Z" id="Path-7" fill="#FFFFFF"></path>
                        <path d="M173.142578,164.661993 L173.142578,149.661993 L288.664696,149.661993 C300.527693,149.661993 302.991924,146.662724 302.991924,135.15357 L302.991924,121.027692 C302.991924,101.428894 315.567014,87.1201425 336.069228,87.1201425 C347.606907,87.1201425 384.272911,87.0800954 446.058638,87.0000063 L446.078081,101.999994 C384.283261,102.080095 347.616511,102.120142 336.069228,102.120142 C324.313318,102.120142 317.991924,109.313034 317.991924,121.027692 L317.991924,135.15357 C317.991924,154.36792 309.534206,164.661993 288.664696,164.661993 L173.142578,164.661993 Z" id="Path-8" fill="#0021B5"></path>
                        <path d="M119.039047,219.851562 L104.039047,219.851562 L104.039047,137.099128 C104.039047,117.214175 116.405275,102 136.821705,102 L226.5,102 L226.5,117 L136.821705,117 C125.454422,117 119.039047,124.892838 119.039047,137.099128 L119.039047,219.851562 Z" id="Path-8" fill="url(#linearGradient-2)" transform="translate(165.269523, 160.925781) scale(-1, 1) translate(-165.269523, -160.925781) "></path>
                        <path d="M98.6558069,117 L98.6558069,102 L99.7827559,102 L99.7827973,117 L98.6558069,117 Z M71.6334236,117 C60.3879043,117 53.7883752,123.979299 53.7853086,133.333455 C53.7822422,142.687112 60.3760692,149.661993 71.6334236,149.661993 L167.484375,149.661993 L167.484375,164.661993 L71.6334236,164.661993 C51.8967283,164.661993 38.7795861,150.786817 38.7853094,133.328538 C38.7910313,115.874889 51.9109349,102 71.6334236,102 L99.7825297,102 C99.782715,102.000002 99.782715,102.005178 99.7827973,117 L71.6334236,117 Z" id="Path-10" fill="url(#linearGradient-3)"></path>
                    </g>
                    <g id="Group-6" transform="translate(93.000000, 61.465957)">
                        <ellipse id="Oval-5" fill="#FFFFFF" cx="187.342084" cy="11.4096916" rx="11.3420842" ry="11.4096916"></ellipse>
                        <path d="" id="Path-9" stroke="#979797" stroke-width="0.6"></path>
                        <circle id="Oval-5" fill="#ABFAF3" cx="11.5" cy="48.0340425" r="11"></circle>
                        <ellipse id="Oval-5" fill="#0021B5" cx="73.3420842" cy="95.4096916" rx="11.3420842" ry="11.4096916"></ellipse>
                        <ellipse id="Oval-5" fill="#4974DD" cx="299.342084" cy="33.4096916" rx="11.3420842" ry="11.4096916"></ellipse>
                    </g>
                </g>
            </g>
            <path d="M50.5,128.5 L50.5,113.5 L68.7517283,113.5 C97.0059582,113.5 112.5,126.512843 112.5,155.726554 L112.5,224.5 L97.5,224.5 L97.5,155.726554 C97.5,135.433211 89.244812,128.5 68.7517283,128.5 L50.5,128.5 Z" id="Path-7" fill="#4974DD" fill-rule="nonzero" transform="translate(81.500000, 169.000000) scale(-1, 1) rotate(-90.000000) translate(-81.500000, -169.000000) "></path>
            <path d="M0,131 L30,131 L30,161 L0,161 L0,131 Z M10,141 L10,151 L20,151 L20,141 L10,141 Z" id="Combined-Shape" fill="#4974DD"></path>
            <path d="M361,226 L391,226 L391,256 L361,256 L361,226 Z M371,236 L371,246 L381,246 L381,236 L371,236 Z" id="Combined-Shape" fill="#FA7A96"></path>
            <path d="M422,0 L452,0 L452,30 L422,30 L422,0 Z M432,10 L432,20 L442,20 L442,10 L432,10 Z" id="Combined-Shape" fill="#FFE970"></path>
            <path d="M603,86 L633,86 L633,116 L603,116 L603,86 Z M613,96 L613,106 L623,106 L623,96 L613,96 Z" id="Combined-Shape" fill="#0021B5"></path>
        </g>
    </g>
</svg>