<?xml version="1.0" encoding="UTF-8"?>
<svg width="630px" height="210px" viewBox="0 0 630 210" version="1.1" xmlns="http://www.w3.org/2000/svg" xmlns:xlink="http://www.w3.org/1999/xlink">
    <!-- Generator: Sketch 48.1 (47250) - http://www.bohemiancoding.com/sketch -->
    <title>Artboard Copy 6</title>
    <desc>Created with Sketch.</desc>
    <defs>
        <linearGradient x1="100%" y1="106.25003%" x2="39.9633526%" y2="100%" id="linearGradient-1">
            <stop stop-color="#FDB16B" offset="0%"></stop>
            <stop stop-color="#FFEA70" offset="100%"></stop>
        </linearGradient>
        <linearGradient x1="-1.11022302e-14%" y1="50%" x2="109.162441%" y2="50%" id="linearGradient-2">
            <stop stop-color="#FA7AE5" offset="0%"></stop>
            <stop stop-color="#FA977A" offset="100%"></stop>
        </linearGradient>
        <linearGradient x1="108.653353%" y1="50%" x2="0%" y2="50%" id="linearGradient-3">
            <stop stop-color="#ABFAF3" offset="0%"></stop>
            <stop stop-color="#85DBFE" offset="100%"></stop>
        </linearGradient>
    </defs>
    <g id="Wednesday" stroke="none" stroke-width="1" fill="none" fill-rule="evenodd">
        <g id="Artboard-Copy-6">
            <g id="Group-11" transform="translate(12.000000, 0.000000)">
                <g id="Group-9" transform="translate(217.759563, 0.720988)">
                    <rect id="Rectangle-13" fill="#1653D7" x="0" y="0.279012346" width="116.719134" height="15" rx="7.5"></rect>
                    <path d="M32.9880289,161.779012 C107.940746,161.907687 154.047668,161.907687 171.308797,161.779012 C197.200489,161.586 211.568562,126.779012 237.095906,126.779012 C254.114135,126.779012 304.276895,126.779012 387.584187,126.779012" id="Path-3" stroke="url(#linearGradient-1)" stroke-width="15" stroke-linecap="round"></path>
                </g>
                <g id="Group-8" transform="translate(122.000000, 119.000000)"></g>
                <g id="Group-3" transform="translate(0.783458, 49.264198)" stroke-linecap="round" stroke-width="15">
                    <path d="M0,114.235802 C79.9754162,114.235802 127.101349,114.235802 141.377798,114.235802 C162.792472,114.235802 169.298734,151.235802 187.861561,151.235802 C200.236779,151.235802 227.925826,151.235802 270.928704,151.235802" id="Path-5" stroke="url(#linearGradient-2)"></path>
                    <path d="M163.710683,0.235802469 C195.265533,0.235802469 219.154572,0.235802469 235.377798,0.235802469 C259.712638,0.235802469 268.01537,39.2358025 291.329824,39.2358025 C306.872792,39.2358025 390.274485,39.2358025 541.534902,39.2358025" id="Path-5" stroke="url(#linearGradient-3)"></path>
                </g>
                <rect id="Rectangle-13" fill="#5883E2" x="292" y="42" width="187" height="15" rx="7.5"></rect>
            </g>
            <rect id="Rectangle-13" fill="#1653D7" x="363.843683" y="193" width="116.719134" height="15" rx="7.5"></rect>
            <rect id="Rectangle-13" fill="#FFFFFF" x="460.425571" y="154.720988" width="59.8032543" height="15" rx="7.5"></rect>
            <rect id="Rectangle-13" fill="#4B75DA" x="197.76234" y="155" width="39.0021224" height="15" rx="7.5"></rect>
            <rect id="Rectangle-13" fill="#0021B5" x="134" y="120" width="280" height="15" rx="7.5"></rect>
            <rect id="Rectangle-13" fill="#FFFFFF" x="98.4762137" y="80.7209877" width="158.485755" height="15" rx="7.5"></rect>
        </g>
    </g>
</svg>