<?xml version="1.0" encoding="UTF-8"?>
<svg width="64px" height="64px" viewBox="0 0 64 64" version="1.1" xmlns="http://www.w3.org/2000/svg" xmlns:xlink="http://www.w3.org/1999/xlink">
    <!-- Generator: Sketch 48.1 (47250) - http://www.bohemiancoding.com/sketch -->
    <title>Artboard Copy</title>
    <desc>Created with Sketch.</desc>
    <defs></defs>
    <g id="Wednesday" stroke="none" stroke-width="1" fill="none" fill-rule="evenodd">
        <g id="Artboard-Copy" fill="#FFFFFF" fill-rule="nonzero">
            <path d="M58,21.6281915 C57.5899003,16.1207447 55.2605339,11.1079787 51.2907687,7.38138298 C47.0421357,3.42393617 41.2843358,1.04946809 35.0672242,1 L33.951753,1 L33.6400772,1 L7.52,1 C7.23281193,1 7,1.23281193 7,1.52 L7,11.6467254 C7,11.9325714 7.23072142,12.1648237 7.51656122,12.166714 L11.9868125,12.1962766 L11.9868125,29.9718085 L11.9868125,31.406383 L11.9868125,32.8574468 L11.9868125,51.8367021 L7.52,51.8367021 C7.23281193,51.8367021 7,52.0695141 7,52.3567021 L7,62.48 C7,62.7671881 7.23281193,63 7.52,63 L11.9868125,63 L36.3467353,63 L41.1416275,63 C41.4288156,63 41.6616275,62.7671881 41.6616275,62.48 L41.6616275,52.3567021 C41.6616275,52.0695141 41.4288156,51.8367021 41.1416275,51.8367021 L36.3467353,51.8367021 L36.3467353,46.2303191 C41.9240913,45.9005319 47.1241557,43.5755319 51.1431328,39.5851064 C55.178514,35.5781915 57.5570923,30.3345745 57.934384,24.7117021 L58,23.2441489 C58,23.2441489 58,22.7054965 58,21.6281915 Z M36.3832487,32.9440542 L36.3832487,30.0492131 L36.3832487,24.7557895 L53.0812183,24.7557895 L36.3832487,41.4631579 L36.3832487,32.9440542 Z M33.535533,6.99702559 L33.535533,9.35368421 L14.7664975,9.23912442 L14.7992246,4.00210526 L33.535533,4.00210526 L33.535533,6.99702559 Z M55.1522843,21.6231579 L55.0536729,21.6231579 L36.3832487,21.6231579 L36.3832487,7.12724662 L36.3832487,4.13263158 C41.346689,4.46171015 46.014295,6.33745804 49.3999529,9.5130663 C52.8184812,12.7051285 54.8400148,16.8679725 55.1522843,21.6231579 Z M9.84771574,9.20679096 L9.88080608,4.00210526 L12.0482234,4.00210526 L12.0482234,9.22315789 L9.84771574,9.20679096 Z M14.7515921,12.2252632 L33.535533,12.3407474 L33.535533,21.6289806 L33.535533,24.6975621 L33.535533,29.9768421 L14.6370558,29.9768421 L14.7515921,12.2252632 Z M14.5567357,42.3768421 C15.571912,44.348811 16.8981908,46.1882105 18.535572,47.8121849 C20.2057009,49.4693016 22.0723155,50.8447085 24.0862944,51.9052632 L14.5076142,51.9052632 L14.5567357,42.3768421 Z M9.58883249,59.9978947 L9.58883249,54.3852632 L12.0482234,54.3852632 L12.0482234,59.9978947 L9.58883249,59.9978947 Z M14.5076142,59.9978947 L14.5404742,54.3852632 L33.6649746,54.3852632 L33.6649746,59.9978947 L14.5076142,59.9978947 Z M38.8426396,54.3852632 L38.8426396,59.9978947 L36.3832487,59.9978947 L36.3832487,54.3852632 L38.8426396,54.3852632 Z M14.6370558,32.9145906 L14.6370558,32.8484211 L33.535533,32.8484211 L33.535533,46.2973904 L33.535533,48.3486477 L33.535533,51.9052632 C23.5958495,51.2270249 15.4381159,42.955826 14.6370558,32.9145906 Z M49.1276637,37.5262577 C46.2037285,40.4261559 42.6391559,42.3044991 38.713198,43.0294737 L54.893401,26.3221053 C54.2199103,30.5566158 52.2322915,34.4451157 49.1276637,37.5262577 Z" id="Shape"></path>
        </g>
    </g>
</svg>